# xmcd
#
# Track frame offsets:
#	150
#	15302
#	25985
#	43134
#	53200
#	61999
#	78080
#	95516
#	119100
#	137269
#	152474
#	169780
#	189581
#	208614
#	212698
#	228858
#	250808
#	270846
#	286231
#	303458
#	318947
#
# Disc length: 4431 seconds
#
# Revision: 1
# Processed by: cddbd v1.5.2PL0 Copyright (c) Steve Scherf et al.
# Submitted via: EasyCDDAExtractor 2010.6.0.0
#
DISCID=13114d15
DTITLE=Mississippi John Hurt - Blues Café Presents
DYEAR=2003
DGENRE=Blues
TTITLE0=Rich woman blues
TTITLE1=Trouble I had all my days
TTITLE2=C-h-i-c-k-e-n blues
TTITLE3=Away
TTITLE4=Coffee blues
TTITLE5=Salty dog
TTITLE6=Nobody's business but mine
TTITLE7=The angles laid him away
TTITLE8=Casey Jones (talking Casey)
TTITLE9=Monday morning blues
TTITLE10=Lonesome blues
TTITLE11=Frankie and Albert
TTITLE12=Baby what's wrong with you
TTITLE13=Here am I, oh Lord send me
TTITLE14=Hard times in the old town tonight
TTITLE15=Spike driver's blues
TTITLE16=Candy man
TTITLE17=My creole belle
TTITLE18=Make me a pallet on your floor
TTITLE19=Shake that thing
TTITLE20=I'm satisfied
EXTD=
EXTT0=
EXTT1=
EXTT2=
EXTT3=
EXTT4=
EXTT5=
EXTT6=
EXTT7=
EXTT8=
EXTT9=
EXTT10=
EXTT11=
EXTT12=
EXTT13=
EXTT14=
EXTT15=
EXTT16=
EXTT17=
EXTT18=
EXTT19=
EXTT20=
PLAYORDER=
